<?xml version="1.0" encoding="UTF-8" standalone="no"?>
<svg
   width="39.999931"
   height="39.999931"
   version="1.1"
   xml:space="preserve"
   id="svg1"
   sodipodi:docname="logo-sans-text.svg"
   inkscape:version="1.3 (0e150ed, 2023-07-21)"
   xmlns:inkscape="http://www.inkscape.org/namespaces/inkscape"
   xmlns:sodipodi="http://sodipodi.sourceforge.net/DTD/sodipodi-0.dtd"
   xmlns="http://www.w3.org/2000/svg"
   xmlns:svg="http://www.w3.org/2000/svg"><defs
   id="defs1" /><sodipodi:namedview
   id="namedview1"
   pagecolor="#ffffff"
   bordercolor="#000000"
   borderopacity="0.25"
   inkscape:showpageshadow="2"
   inkscape:pageopacity="0.0"
   inkscape:pagecheckerboard="0"
   inkscape:deskcolor="#d1d1d1"
   inkscape:zoom="4.0280704"
   inkscape:cx="58.588847"
   inkscape:cy="16.136759"
   inkscape:window-width="1312"
   inkscape:window-height="449"
   inkscape:window-x="0"
   inkscape:window-y="25"
   inkscape:window-maximized="0"
   inkscape:current-layer="g1" />&#10; <g
   id="g1">&#10;  <title
   id="title1">Layer 1</title>&#10;  <g
   id="SVGRepo_bgCarrier"
   stroke-width="0" />&#10;  <g
   id="SVGRepo_tracerCarrier"
   stroke-linecap="round"
   stroke-linejoin="round" />&#10;  <g
   id="SVGRepo_iconCarrier"
   stroke="null">&#10;   <g
   id="XMLID_1206_"
   stroke="null">&#10;    <path
   id="XMLID_1207_"
   d="m 0,16.21619 c 0,4.77653 3.8721,8.64863 8.64863,8.64863 h 1.08108 v -8.64863 z"
   fill="#8b5cf6"
   stroke="null" />&#10;    <path
   id="XMLID_1208_"
   d="M 9.72971,7.56755 H 8.64863 C 3.8721,7.56755 0,11.43965 0,16.21618 h 9.72971 z"
   fill="#a78bfa"
   stroke="null" />&#10;    <polygon
   id="XMLID_1209_"
   points="9.7297133,24.864822 10.894035,39.999933 19.459427,39.999933 18.378347,24.864822 "
   fill="#5b21b6"
   stroke="null" />&#10;    <path
   id="XMLID_1210_"
   d="m 39.99993,16.21619 c 0,-3.21394 -2.33805,-5.87869 -5.4054,-6.39339 v 12.78668 c 3.06735,-0.51459 5.4054,-3.17956 5.4054,-6.39329 z"
   fill="#5b21b6"
   stroke="null" />&#10;    <polygon
   id="XMLID_1211_"
   points="31.351299,16.216189 9.7297133,16.216189 9.7297133,24.864822 18.378347,24.864822 21.621585,24.864822 31.351299,32.432378 "
   fill="#2e1065"
   stroke="null" />&#10;    <polygon
   id="XMLID_1212_"
   points="21.621585,7.5675548 9.7297133,7.5675548 9.7297133,16.216189 31.351299,16.216189 31.351299,0 "
   fill="#c4b5fd"
   stroke="null" />&#10;    <polygon
   id="XMLID_1213_"
   points="34.594535,22.609585 34.594535,9.8227947 34.594535,0 31.351299,0 31.351299,16.216189 31.351299,32.432378 34.594535,32.432378 "
   fill="#8b5cf6"
   stroke="null" />&#10;   </g>&#10;  </g>&#10;  &#10; </g>&#10;&#10;</svg>
