<?xml version="1.0" encoding="UTF-8" standalone="no"?>
<svg
   width="160"
   height="40"
   version="1.1"
   xml:space="preserve"
   id="svg1"
   sodipodi:docname="svg (3).svg"
   inkscape:version="1.3 (0e150ed, 2023-07-21)"
   xmlns:inkscape="http://www.inkscape.org/namespaces/inkscape"
   xmlns:sodipodi="http://sodipodi.sourceforge.net/DTD/sodipodi-0.dtd"
   xmlns="http://www.w3.org/2000/svg"
   xmlns:svg="http://www.w3.org/2000/svg"><defs
   id="defs1" /><sodipodi:namedview
   id="namedview1"
   pagecolor="#ffffff"
   bordercolor="#000000"
   borderopacity="0.25"
   inkscape:showpageshadow="2"
   inkscape:pageopacity="0.0"
   inkscape:pagecheckerboard="0"
   inkscape:deskcolor="#d1d1d1"
   inkscape:zoom="4.0280704"
   inkscape:cx="64.050519"
   inkscape:cy="26.563587"
   inkscape:window-width="1312"
   inkscape:window-height="449"
   inkscape:window-x="0"
   inkscape:window-y="25"
   inkscape:window-maximized="0"
   inkscape:current-layer="g1" />&#10; <g
   id="g1">&#10;  <title
   id="title1">Layer 1</title>&#10;  <g
   id="SVGRepo_bgCarrier"
   stroke-width="0" />&#10;  <g
   id="SVGRepo_tracerCarrier"
   stroke-linecap="round"
   stroke-linejoin="round" />&#10;  <g
   id="SVGRepo_iconCarrier"
   stroke="null">&#10;   <g
   id="XMLID_1206_"
   stroke="null">&#10;    <path
   id="XMLID_1207_"
   d="m 0,16.21619 c 0,4.77653 3.8721,8.64863 8.64863,8.64863 h 1.08108 v -8.64863 z"
   fill="#8b5cf6"
   stroke="null" />&#10;    <path
   id="XMLID_1208_"
   d="M 9.72971,7.56755 H 8.64863 C 3.8721,7.56755 0,11.43965 0,16.21618 h 9.72971 z"
   fill="#a78bfa"
   stroke="null" />&#10;    <polygon
   id="XMLID_1209_"
   points="19.459427,39.999933 18.378347,24.864822 9.7297133,24.864822 10.894035,39.999933 "
   fill="#5b21b6"
   stroke="null" />&#10;    <path
   id="XMLID_1210_"
   d="m 39.99993,16.21619 c 0,-3.21394 -2.33805,-5.87869 -5.4054,-6.39339 v 12.78668 c 3.06735,-0.51459 5.4054,-3.17956 5.4054,-6.39329 z"
   fill="#5b21b6"
   stroke="null" />&#10;    <polygon
   id="XMLID_1211_"
   points="21.621585,24.864822 31.351299,32.432378 31.351299,16.216189 9.7297133,16.216189 9.7297133,24.864822 18.378347,24.864822 "
   fill="#2e1065"
   stroke="null" />&#10;    <polygon
   id="XMLID_1212_"
   points="31.351299,16.216189 31.351299,0 21.621585,7.5675548 9.7297133,7.5675548 9.7297133,16.216189 "
   fill="#c4b5fd"
   stroke="null" />&#10;    <polygon
   id="XMLID_1213_"
   points="31.351299,32.432378 34.594535,32.432378 34.594535,22.609585 34.594535,9.8227947 34.594535,0 31.351299,0 31.351299,16.216189 "
   fill="#8b5cf6"
   stroke="null" />&#10;   </g>&#10;  </g>&#10;  <path
   d="m 61.051552,27.900009 h -4.652344 l -1.207031,-3.527344 h -6.46875 l -1.207031,3.527344 H 42.981239 L 49.426552,10.45079 h 5.179687 z m -6.949219,-6.726562 -2.144531,-6.257813 -2.144531,6.257813 z m 22.019531,6.726562 h -4.21875 v -1.371094 q -1.089843,0.890625 -2.039062,1.3125 -0.949219,0.421875 -2.191406,0.421875 -2.402344,0 -3.84375,-1.851562 -1.441407,-1.851563 -1.441407,-4.992188 0,-1.675781 0.480469,-2.964843 0.492188,-1.300782 1.335938,-2.226563 0.796875,-0.878906 1.933593,-1.359375 1.136719,-0.492187 2.273438,-0.492187 1.183594,0 1.933594,0.257812 0.761718,0.246094 1.558593,0.632813 V 9.6656342 h 4.21875 z m -4.21875,-3.632812 v -6.457032 q -0.445312,-0.1875 -0.9375,-0.269531 -0.492187,-0.08203 -0.902343,-0.08203 -1.664063,0 -2.496094,1.042969 -0.832031,1.03125 -0.832031,2.871093 0,1.933594 0.667968,2.8125 0.667969,0.867188 2.144532,0.867188 0.574218,0 1.21875,-0.210938 0.644531,-0.222656 1.136718,-0.574218 z m 21.058594,3.632812 H 80.340614 V 10.45079 h 12.621094 v 3.375 h -8.144531 v 3.011719 h 7.558594 v 3.375 h -7.558594 v 4.3125 h 8.144531 z m 16.335942,0 h -4.21875 v -1.371094 q -1.08985,0.890625 -2.03907,1.3125 -0.94922,0.421875 -2.1914,0.421875 -2.402347,0 -3.843753,-1.851562 -1.441406,-1.851563 -1.441406,-4.992188 0,-1.675781 0.480468,-2.964843 0.492188,-1.300782 1.335938,-2.226563 0.796875,-0.878906 1.933594,-1.359375 1.136719,-0.492187 2.273439,-0.492187 1.18359,0 1.93359,0.257812 0.76172,0.246094 1.5586,0.632813 V 9.6656342 h 4.21875 z m -4.21875,-3.632812 v -6.457032 q -0.44532,-0.1875 -0.9375,-0.269531 -0.49219,-0.08203 -0.90235,-0.08203 -1.66406,0 -2.49609,1.042969 -0.832033,1.03125 -0.832033,2.871093 0,1.933594 0.667973,2.8125 0.66796,0.867188 2.14453,0.867188 0.57422,0 1.21875,-0.210938 0.64453,-0.222656 1.13672,-0.574218 z m 12.42187,3.632812 h -4.21875 V 14.739853 h 4.21875 z m 0.11719,-15.035156 h -4.45313 V 9.6656342 h 4.45313 z m 12.28125,14.917969 q -0.67969,0.175781 -1.44141,0.269531 -0.76172,0.105469 -1.86328,0.105469 -2.46094,0 -3.66797,-0.996094 -1.19531,-0.996094 -1.19531,-3.410156 v -6.152344 h -1.73438 v -2.859375 h 1.73438 v -3.761719 h 4.21875 v 3.761719 h 3.94922 v 2.859375 h -3.94922 v 4.664062 q 0,0.691407 0.0117,1.207032 0.0117,0.515625 0.1875,0.925781 0.16406,0.410156 0.57422,0.65625 0.42187,0.234375 1.21875,0.234375 0.32812,0 0.85547,-0.140625 0.53906,-0.140625 0.75,-0.257813 h 0.35156 z m 15.97265,-6.457032 q 0,3.246094 -1.89843,5.121094 -1.88672,1.863281 -5.3086,1.863281 -3.42187,0 -5.32031,-1.863281 -1.88672,-1.875 -1.88672,-5.121094 0,-3.269531 1.89844,-5.132812 1.91016,-1.863281 5.30859,-1.863281 3.44532,0 5.32032,1.875 1.88671,1.875 1.88671,5.121093 z m -5.1914,3.199219 q 0.41015,-0.503906 0.60937,-1.207031 0.21094,-0.714844 0.21094,-1.96875 0,-1.160156 -0.21094,-1.945313 -0.21093,-0.785156 -0.58593,-1.253906 -0.375,-0.480469 -0.90235,-0.679687 -0.52734,-0.199219 -1.13672,-0.199219 -0.60937,0 -1.08984,0.164062 -0.46875,0.164063 -0.90234,0.65625 -0.38672,0.457032 -0.6211,1.253907 -0.22265,0.796875 -0.22265,2.003906 0,1.078125 0.19921,1.875 0.19922,0.785156 0.58594,1.265625 0.375,0.457031 0.89063,0.667969 0.52734,0.210937 1.19531,0.210937 0.57422,0 1.08984,-0.1875 0.52735,-0.199219 0.89063,-0.65625 z m 17.7539,-5.765625 h -0.375 q -0.26953,-0.09375 -0.86718,-0.140625 -0.59766,-0.04687 -0.9961,-0.04687 -0.90234,0 -1.59375,0.117188 -0.6914,0.117187 -1.48828,0.398437 v 8.8125 H 148.8953 V 14.739853 h 4.21875 v 1.933594 q 1.39453,-1.195313 2.42578,-1.582032 1.03125,-0.398437 1.89844,-0.398437 0.22266,0 0.50391,0.01172 0.28125,0.01172 0.49218,0.03516 z"
   id="svg_1"
   style="font-weight:bold;font-size:24px;font-family:Inter;stroke:#000000;stroke-width:0"
   aria-label="AdEditor" />&#10; </g>&#10;&#10;</svg>
